<?xml version="1.0" standalone="no"?>
<!DOCTYPE svg PUBLIC "-//W3C//DTD SVG 20010904//EN"
 "http://www.w3.org/TR/2001/REC-SVG-20010904/DTD/svg10.dtd">
<svg version="1.0" xmlns="http://www.w3.org/2000/svg"
 width="109.000000pt" height="117.000000pt" viewBox="0 0 109.000000 117.000000"
 preserveAspectRatio="xMidYMid meet">

<g transform="translate(0.000000,117.000000) scale(0.100000,-0.100000)"
fill="#000000" stroke="none">
<path d="M536 1036 c-9 -19 -16 -43 -16 -53 0 -27 23 -56 49 -60 17 -2 25 5
36 30 15 37 11 72 -13 100 -22 25 -38 21 -56 -17z"/>
<path d="M396 987 c-74 -40 -158 -138 -188 -219 -15 -42 -26 -58 -39 -58 -11
0 -19 -7 -19 -15 0 -13 21 -15 125 -15 104 0 125 2 125 15 0 12 -16 15 -85 15
-70 0 -85 3 -85 15 0 22 29 75 40 75 6 0 10 11 10 24 0 32 99 122 168 153 29
13 50 28 47 33 -10 17 -38 11 -99 -23z"/>
<path d="M650 1007 c0 -7 22 -24 50 -36 62 -28 148 -104 157 -139 3 -15 14
-33 24 -42 9 -8 20 -29 24 -47 l6 -32 -82 -3 c-55 -2 -84 -7 -87 -15 -3 -10
26 -13 122 -13 105 0 126 2 126 15 0 8 -8 15 -18 15 -13 0 -28 21 -50 73 -41
93 -104 165 -180 205 -64 34 -92 40 -92 19z"/>
<path d="M493 923 c-7 -3 -13 -13 -13 -22 0 -19 40 -61 58 -61 19 0 14 -34 -8
-53 -19 -16 -20 -15 -26 7 -12 49 -97 96 -110 61 -18 -46 38 -120 86 -113 22
3 31 -1 39 -19 6 -13 15 -23 21 -23 5 0 10 -7 10 -15 0 -19 -3 -19 -42 5 -38
23 -88 27 -88 6 0 -7 13 -16 30 -19 16 -4 47 -22 68 -42 38 -34 72 -46 72 -25
0 14 90 70 112 70 10 0 18 7 18 15 0 24 -53 18 -95 -10 -20 -15 -40 -24 -43
-21 -3 3 6 21 19 41 19 28 31 35 57 35 39 0 77 36 87 82 10 42 -5 53 -49 38
-36 -12 -66 -51 -66 -85 0 -12 -7 -8 -24 12 -27 31 -25 46 10 61 33 16 53 60
33 73 -21 13 -28 11 -54 -15 -23 -23 -24 -23 -40 -6 -18 20 -43 29 -62 23z
m95 -176 c2 -12 -3 -17 -17 -17 -12 0 -21 6 -21 13 0 31 32 34 38 4z"/>
<path d="M757 642 c-13 -3 -17 -14 -17 -48 0 -50 17 -59 27 -14 l6 30 108 0
c88 0 109 3 109 14 0 8 -9 18 -20 21 -20 6 -175 4 -213 -3z"/>
<path d="M150 626 c0 -13 20 -16 108 -18 l107 -3 3 -27 c2 -17 9 -28 18 -28
12 0 14 10 12 43 l-3 42 -122 3 c-104 2 -123 0 -123 -12z"/>
<path d="M490 597 c0 -7 14 -26 30 -42 17 -16 30 -39 30 -52 0 -22 -3 -23 -75
-23 -60 0 -75 3 -75 15 0 19 -16 19 -27 1 -4 -8 -26 -16 -48 -18 -27 -2 -40
-8 -40 -18 0 -12 23 -15 132 -18 121 -2 132 -4 138 -22 8 -26 21 -26 28 0 5
18 15 20 138 22 111 3 134 6 134 18 0 10 -13 16 -40 18 -22 2 -44 10 -48 18
-11 18 -27 18 -27 -1 0 -12 -16 -15 -81 -15 -79 0 -80 0 -74 23 4 12 21 37 38
55 24 25 28 35 19 44 -9 9 -19 5 -42 -17 l-30 -29 -28 27 c-30 29 -52 35 -52
14z"/>
<path d="M177 573 c-19 -19 -5 -33 33 -33 28 0 40 4 40 14 0 21 -56 36 -73 19z"/>
<path d="M861 567 c-16 -21 -3 -27 55 -27 53 0 78 15 53 31 -22 14 -95 11
-108 -4z"/>
<path d="M215 480 c-8 -13 4 -32 16 -25 12 8 12 35 0 35 -6 0 -13 -4 -16 -10z"/>
<path d="M902 476 c1 -10 8 -17 13 -17 15 1 12 24 -3 29 -9 3 -13 -2 -10 -12z"/>
<path d="M290 270 l0 -100 25 0 25 0 0 100 0 100 -25 0 -25 0 0 -100z"/>
<path d="M407 364 c-10 -10 -8 -166 2 -182 15 -25 46 -9 49 25 3 29 7 32 40
35 32 3 37 6 37 28 0 21 -6 26 -40 31 l-40 6 35 2 c45 2 63 13 58 37 -3 16
-14 19 -69 22 -35 2 -68 0 -72 -4z"/>
<path d="M584 357 c-3 -8 -4 -52 -2 -98 l3 -84 69 -3 c49 -2 72 1 77 10 19 29
9 38 -41 38 -27 0 -50 5 -50 10 0 6 13 10 29 10 33 0 54 20 45 44 -4 10 -18
16 -41 16 -19 0 -32 4 -28 10 3 5 21 8 41 6 37 -3 60 14 50 39 -7 20 -144 22
-152 2z"/>
<path d="M797 352 c-20 -22 -22 -65 -4 -81 8 -6 28 -14 46 -17 51 -11 51 -28
-1 -21 -65 9 -95 -27 -43 -51 36 -17 86 -15 113 4 30 21 31 88 2 104 -19 10
-19 11 1 31 16 16 18 23 8 35 -17 21 -102 19 -122 -4z"/>
<path d="M245 120 c-3 -5 -12 -7 -20 -3 -11 3 -15 -2 -15 -17 0 -15 5 -20 14
-17 7 3 19 0 25 -6 8 -8 11 -3 11 21 0 33 -4 39 -15 22z"/>
<path d="M270 121 c1 -3 7 -17 14 -30 13 -24 14 -24 25 -3 16 30 14 37 -14 38
-14 1 -25 -1 -25 -5z"/>
<path d="M330 100 c0 -23 5 -30 19 -30 28 0 47 26 31 45 -7 8 -21 15 -31 15
-14 0 -19 -7 -19 -30z"/>
<path d="M400 100 c0 -23 5 -30 19 -30 11 0 23 5 26 10 11 18 -6 50 -26 50
-14 0 -19 -7 -19 -30z"/>
<path d="M460 100 c0 -29 0 -30 53 -27 45 2 52 5 55 25 4 26 -21 40 -42 23
-10 -8 -16 -9 -21 -1 -3 5 -15 10 -26 10 -14 0 -19 -7 -19 -30z"/>
<path d="M584 116 c-3 -9 -3 -23 0 -31 8 -22 48 0 44 23 -4 22 -36 28 -44 8z"/>
<path d="M644 115 c-10 -25 1 -38 34 -41 30 -4 32 -2 32 27 0 26 -2 29 -14 20
-10 -8 -16 -9 -21 -1 -9 15 -25 12 -31 -5z"/>
<path d="M731 116 c-6 -7 -9 -21 -5 -30 7 -17 44 -23 44 -6 0 6 -5 10 -12 10
-9 0 -9 3 0 12 7 7 12 16 12 20 0 13 -27 9 -39 -6z"/>
<path d="M790 103 c0 -18 5 -33 10 -33 6 0 10 5 10 10 0 6 8 5 20 -2 10 -7 23
-8 27 -4 4 5 2 11 -5 13 -10 4 -10 8 -1 19 17 21 2 31 -23 15 -17 -11 -22 -11
-29 1 -6 9 -9 2 -9 -19z"/>
<path d="M880 100 c0 -19 5 -30 14 -30 20 0 26 12 19 38 -8 33 -33 27 -33 -8z"/>
</g>
</svg>
